<svg xmlns="http://www.w3.org/2000/svg" viewBox="0 0 1200 675" role="img" aria-labelledby="title desc">
<title id="title">Storm Sector abstract world art</title>
<desc id="desc">A dark electric storm vortex crossed by luminous lightning over a charged horizon.</desc>
<defs>
  <linearGradient id="bg" x1=".05" y1="0" x2=".95" y2="1">
    <stop offset="0" stop-color="#11141c"/><stop offset=".48" stop-color="#171b27"/><stop offset="1" stop-color="#0b1212"/>
  </linearGradient>
  <radialGradient id="eye">
    <stop offset="0" stop-color="#d9f9ff" stop-opacity=".78"/><stop offset=".14" stop-color="#83dfff" stop-opacity=".38"/>
    <stop offset=".6" stop-color="#7a6cff" stop-opacity=".08"/><stop offset="1" stop-color="#7a6cff" stop-opacity="0"/>
  </radialGradient>
  <linearGradient id="bolt" x1="0" y1="0" x2="1" y2="1">
    <stop offset="0" stop-color="#d9fbff"/><stop offset=".5" stop-color="#7fdfff"/><stop offset="1" stop-color="#a487ff"/>
  </linearGradient>
</defs>
<rect width="1200" height="675" fill="url(#bg)"/>
<ellipse cx="610" cy="275" rx="360" ry="235" fill="url(#eye)"/>
<g fill="none" stroke-linecap="round">
  <path d="M238 282c113-155 337-219 518-127 97 49 173 134 205 229" stroke="#b0d9ff" stroke-opacity=".12" stroke-width="30"/>
  <path d="M288 337c80-127 244-200 393-173 113 21 210 91 270 187" stroke="#88bbff" stroke-opacity=".16" stroke-width="18"/>
  <path d="M343 389c66-94 187-145 300-126 87 15 163 62 219 133" stroke="#9b91ff" stroke-opacity=".2" stroke-width="12"/>
  <path d="M411 429c45-56 118-86 191-77 59 7 111 35 151 79" stroke="#c2ccff" stroke-opacity=".24" stroke-width="7"/>
</g>
<path d="M690 99 557 315h94l-135 265 247-311H652Z" fill="url(#bolt)" opacity=".96"/>
<path d="M386 170 320 286h48l-61 130 120-154h-50Z" fill="#8adfff" opacity=".58"/>
<path d="M918 195 865 289h40l-53 108 102-128h-44Z" fill="#b49cff" opacity=".48"/>
<path d="M0 520c130-36 222 23 342 0 101-20 173-70 283-49 99 19 161 64 266 49 115-17 198-41 309-10v165H0Z" fill="#0d1618"/>
<path d="M0 520c130-36 222 23 342 0 101-20 173-70 283-49 99 19 161 64 266 49 115-17 198-41 309-10" fill="none" stroke="#8fe9ff" stroke-opacity=".28" stroke-width="3"/>
<g fill="none" stroke="#b8ecff" stroke-opacity=".22"><circle cx="600" cy="334" r="178"/><circle cx="600" cy="334" r="238"/><path d="M600 70v528M336 334h528"/></g>
<g fill="#ccefff"><circle cx="456" cy="435" r="5"/><circle cx="775" cy="250" r="5"/><circle cx="814" cy="449" r="4"/></g>
</svg>
