<svg xmlns="http://www.w3.org/2000/svg" viewBox="0 0 2048 768" width="2048" height="768"><defs><linearGradient id="night" x1="0" y1="0" x2="0" y2="1"><stop stop-color="#07152a" stop-opacity=".05"/><stop offset="1" stop-color="#031020" stop-opacity=".94"/></linearGradient><linearGradient id="cyan" x1="0" y1="0" x2="1" y2="1"><stop stop-color="#7ef8ff"/><stop offset="1" stop-color="#0c899c"/></linearGradient><linearGradient id="violet" x1="0" y1="0" x2="1" y2="1"><stop stop-color="#d5c0ff"/><stop offset="1" stop-color="#5f39bf"/></linearGradient><linearGradient id="mint" x1="0" y1="0" x2="1" y2="1"><stop stop-color="#bafbd7"/><stop offset="1" stop-color="#23977c"/></linearGradient></defs><rect width="2048" height="768" fill="none"/><g stroke="url(#cyan)" stroke-width="7" stroke-linecap="round" stroke-opacity=".62"><path d="M80 220h184l48-26 54 26h126"/><path d="M790 350h170l54-30 55 30h180"/><path d="M1460 175h126l39-21 40 21h125"/></g><g stroke="url(#violet)" stroke-width="3" stroke-opacity=".55"><path d="M10 240h270M708 370h610M1390 195h390"/></g><g fill="#e0faff" fill-opacity=".7"><circle cx="276" cy="220" r="9"/><circle cx="1020" cy="350" r="10"/><circle cx="1630" cy="175" r="8"/></g></svg>
