<svg xmlns="http://www.w3.org/2000/svg" viewBox="0 0 2048 768" width="2048" height="768"><defs><linearGradient id="night" x1="0" y1="0" x2="0" y2="1"><stop stop-color="#07152a" stop-opacity=".05"/><stop offset="1" stop-color="#031020" stop-opacity=".94"/></linearGradient><linearGradient id="cyan" x1="0" y1="0" x2="1" y2="1"><stop stop-color="#7ef8ff"/><stop offset="1" stop-color="#0c899c"/></linearGradient><linearGradient id="violet" x1="0" y1="0" x2="1" y2="1"><stop stop-color="#d5c0ff"/><stop offset="1" stop-color="#5f39bf"/></linearGradient><linearGradient id="mint" x1="0" y1="0" x2="1" y2="1"><stop stop-color="#bafbd7"/><stop offset="1" stop-color="#23977c"/></linearGradient></defs><rect width="2048" height="768" fill="none"/><g fill="#091426" stroke="url(#violet)" stroke-opacity=".62" stroke-width="5"><path d="M290 740 390 150l100 590z"/><path d="M900 740 1010 64l112 676z"/><path d="M1510 740 1610 210l100 530z"/></g><g fill="none" stroke="#bda7ff" stroke-opacity=".36" stroke-width="5"><path d="M360 222c50-74 100-74 150 0"/><path d="M980 166c58-84 116-84 174 0"/><path d="M1580 280c48-66 96-66 144 0"/></g><g fill="#d9c9ff" fill-opacity=".76"><circle cx="440" cy="138" r="13"/><circle cx="1066" cy="52" r="15"/><circle cx="1660" cy="198" r="12"/></g></svg>
