<svg xmlns="http://www.w3.org/2000/svg" width="1200" height="675" viewBox="0 0 1200 675">
<defs><radialGradient id="g" cx="25%" cy="15%" r="70%"><stop stop-color="#22d3ee" stop-opacity=".35"/><stop offset=".55" stop-color="#0f172a"/><stop offset="1" stop-color="#020617"/></radialGradient><filter id="shadow"><feDropShadow dx="0" dy="24" stdDeviation="28" flood-color="#000" flood-opacity=".55"/></filter></defs>
<rect width="1200" height="675" fill="url(#g)"/>
<rect x="56" y="52" width="1088" height="571" rx="38" fill="rgba(2,6,23,.72)" stroke="#22d3ee" stroke-opacity=".55" filter="url(#shadow)"/>
<text x="95" y="132" fill="#22d3ee" font-size="24" font-family="Inter,system-ui,sans-serif" font-weight="900" letter-spacing="4">EONAPP PUBLIC SHOWCASE</text>
<text x="95" y="205" fill="#e0f2fe" font-size="58" font-family="Inter,system-ui,sans-serif" font-weight="900">EON City</text>
<text x="98" y="253" fill="#bae6fd" font-size="26" font-family="Inter,system-ui,sans-serif">Playable AI world preview</text>
<rect x="130" y="280" width="62" height="120" rx="10" fill="#0f2b46" stroke="#22d3ee"/><rect x="145" y="302" width="14" height="14" fill="#22d3ee" opacity=".65"/><rect x="220" y="280" width="62" height="170" rx="10" fill="#0f2b46" stroke="#22d3ee"/><rect x="235" y="322" width="14" height="14" fill="#22d3ee" opacity=".65"/><rect x="310" y="280" width="62" height="220" rx="10" fill="#0f2b46" stroke="#22d3ee"/><rect x="325" y="342" width="14" height="14" fill="#22d3ee" opacity=".65"/><rect x="400" y="280" width="62" height="120" rx="10" fill="#0f2b46" stroke="#22d3ee"/><rect x="415" y="302" width="14" height="14" fill="#22d3ee" opacity=".65"/><rect x="490" y="280" width="62" height="170" rx="10" fill="#0f2b46" stroke="#22d3ee"/><rect x="505" y="322" width="14" height="14" fill="#22d3ee" opacity=".65"/><rect x="580" y="280" width="62" height="220" rx="10" fill="#0f2b46" stroke="#22d3ee"/><rect x="595" y="342" width="14" height="14" fill="#22d3ee" opacity=".65"/><rect x="670" y="280" width="62" height="120" rx="10" fill="#0f2b46" stroke="#22d3ee"/><rect x="685" y="302" width="14" height="14" fill="#22d3ee" opacity=".65"/><rect x="760" y="280" width="62" height="170" rx="10" fill="#0f2b46" stroke="#22d3ee"/><rect x="775" y="322" width="14" height="14" fill="#22d3ee" opacity=".65"/>
<text x="95" y="585" fill="#94a3b8" font-size="22" font-family="Inter,system-ui,sans-serif">NPCs • Market • Vault • Workstation</text>
</svg>